<?xml version="1.0" standalone="no"?>
<!DOCTYPE svg PUBLIC "-//W3C//DTD SVG 20010904//EN"
 "http://www.w3.org/TR/2001/REC-SVG-20010904/DTD/svg10.dtd">
<svg version="1.0" xmlns="http://www.w3.org/2000/svg"
 width="522.000000pt" height="522.000000pt" viewBox="0 0 522.000000 522.000000"
 preserveAspectRatio="xMidYMid meet">
<metadata>
Created by potrace 1.14, written by Peter Selinger 2001-2017
</metadata>
<g transform="translate(0.000000,522.000000) scale(0.100000,-0.100000)"
fill="#000000" stroke="none">
<path d="M872 4897 c-18 -23 -39 -74 -36 -88 1 -8 5 -32 9 -54 9 -56 26 -118
35 -130 7 -10 30 -76 34 -98 1 -7 5 -18 9 -24 8 -13 -7 -50 -17 -45 -30 12
-96 -30 -96 -62 0 -7 -16 -24 -35 -37 -19 -13 -35 -27 -36 -31 -4 -20 -5 -24
-15 -41 -6 -11 -15 -18 -20 -16 -11 4 -55 -61 -49 -72 3 -4 1 -10 -3 -13 -19
-11 -5 -84 21 -116 15 -17 27 -35 28 -38 2 -16 8 -48 20 -96 7 -28 12 -54 11
-58 -1 -5 2 -8 7 -8 5 0 11 -12 14 -27 7 -30 58 -93 76 -93 6 0 11 -3 11 -8 0
-4 14 -13 30 -20 17 -8 28 -17 25 -21 -6 -11 -8 -71 -2 -106 3 -16 8 -50 12
-75 8 -51 13 -74 15 -77 4 -5 7 -23 9 -44 1 -12 5 -17 13 -13 7 5 8 3 2 -7 -5
-8 -9 -16 -9 -19 -3 -21 -19 -77 -23 -85 -8 -13 -13 -35 -15 -62 0 -13 -4 -23
-8 -23 -8 0 -4 -38 9 -71 6 -15 8 -29 5 -32 -8 -8 -7 -133 1 -146 4 -6 3 -11
-1 -11 -5 0 -8 -22 -8 -50 0 -27 3 -50 8 -50 4 0 5 -5 1 -12 -12 -18 -11 -102
1 -110 7 -5 7 -11 0 -15 -12 -10 -13 -393 0 -413 6 -9 4 -11 -4 -5 -10 6 -11
3 -2 -14 7 -11 8 -21 4 -21 -4 0 1 -7 11 -15 14 -11 16 -15 5 -15 -8 -1 -5 -6
9 -13 12 -7 19 -16 16 -20 -4 -4 0 -7 9 -7 9 0 17 -5 17 -10 0 -6 11 -15 25
-22 13 -6 23 -14 21 -17 -7 -11 22 -43 34 -36 6 3 10 3 9 -2 -4 -21 2 -33 16
-33 8 0 15 -5 15 -11 0 -5 5 -7 10 -4 6 4 10 3 9 -2 -1 -4 1 -16 6 -26 6 -15
10 -15 23 -5 12 10 14 10 8 0 -4 -7 -1 -15 8 -18 9 -3 16 -12 16 -20 0 -8 5
-14 12 -14 6 0 8 -3 5 -7 -4 -3 0 -14 9 -24 15 -16 14 -17 -8 -13 -22 5 -22 5
-4 -10 16 -13 17 -16 4 -16 -10 0 -14 -8 -13 -25 2 -14 -1 -27 -6 -31 -5 -3
-7 -9 -4 -14 3 -4 -2 -23 -10 -42 -11 -27 -11 -38 -2 -48 9 -10 9 -11 -1 -6
-9 6 -11 1 -8 -18 2 -14 -1 -27 -7 -30 -8 -3 -7 -8 3 -15 11 -8 11 -11 2 -11
-10 0 -10 -5 -1 -21 8 -15 8 -19 0 -15 -19 12 -12 -13 9 -34 12 -12 18 -25 15
-30 -4 -6 -1 -10 5 -10 6 0 8 -5 5 -10 -3 -5 -1 -10 4 -10 6 0 11 -9 11 -19 0
-11 5 -23 12 -27 7 -5 8 -3 3 6 -6 9 -4 11 4 5 7 -4 11 -16 8 -26 -3 -11 -2
-17 3 -14 4 3 11 -7 14 -21 6 -22 9 -24 23 -12 14 11 15 10 8 -11 -5 -16 -4
-21 4 -17 6 4 14 1 17 -8 3 -8 13 -17 21 -20 12 -5 13 -3 7 7 -5 7 -2 5 8 -5
12 -13 18 -15 22 -6 4 7 4 3 2 -9 -3 -17 0 -20 13 -15 13 5 14 3 3 -10 -10
-13 -10 -17 0 -21 9 -4 9 -6 -2 -6 -11 -1 -15 -12 -14 -38 1 -21 -3 -44 -8
-51 -6 -6 -6 -12 -1 -12 5 0 8 -16 8 -35 -2 -34 7 -42 39 -36 5 1 3 -6 -5 -15
-13 -15 -12 -16 10 -9 16 5 21 4 17 -4 -4 -6 -4 -11 1 -10 22 4 34 -2 27 -14
-5 -7 0 -6 11 3 14 11 17 12 11 1 -6 -9 -4 -12 5 -9 8 3 14 10 14 15 0 6 3 14
7 18 9 9 5 -17 -6 -33 -9 -14 19 -41 42 -42 7 0 10 -4 7 -10 -3 -5 -1 -10 4
-10 6 0 11 5 11 12 0 6 3 9 6 6 3 -4 1 -16 -6 -27 -13 -25 -4 -27 24 -4 12 10
15 11 9 3 -10 -11 -9 -18 5 -34 9 -11 12 -16 5 -13 -8 5 -11 0 -10 -13 1 -13
6 -19 15 -15 10 3 9 -1 -3 -17 -8 -13 -15 -32 -15 -45 0 -12 -5 -25 -12 -29
-8 -5 -9 -2 -5 10 4 11 3 15 -4 10 -6 -3 -9 -15 -6 -25 5 -17 4 -17 -21 -1
-15 9 -23 12 -19 5 8 -13 -21 -33 -39 -26 -24 8 -22 -26 2 -42 21 -14 28 -14
42 -3 11 9 14 10 8 1 -4 -7 -3 -13 3 -13 5 0 13 5 16 10 5 8 12 7 22 -2 9 -7
19 -11 22 -9 19 11 51 20 46 12 -3 -6 6 -6 25 -1 17 5 32 5 35 0 3 -5 16 -4
30 2 24 11 50 -2 52 -27 1 -5 12 -27 25 -48 28 -45 38 -49 157 -63 31 -3 64
-10 74 -15 9 -6 17 -7 17 -3 0 3 6 2 13 -4 6 -5 44 -26 82 -47 39 -21 77 -44
86 -51 8 -8 19 -14 24 -14 5 0 16 -6 24 -14 25 -21 185 -107 197 -105 4 0 10
-4 13 -9 8 -12 140 -81 214 -111 93 -38 121 -36 183 10 29 21 55 39 58 39 7 0
52 40 114 101 65 64 95 99 118 138 9 15 30 37 47 49 18 12 44 33 59 46 15 15
34 23 45 21 10 -3 50 -13 88 -23 39 -10 82 -18 98 -17 15 2 27 -1 27 -6 0 -5
7 -6 15 -3 8 3 20 2 27 -2 14 -9 24 -11 76 -17 34 -4 40 1 47 40 2 10 4 18 5
18 1 0 3 23 6 50 7 79 10 88 27 91 9 1 17 -1 17 -6 0 -15 61 -37 100 -36 22 1
40 -1 40 -5 0 -3 7 -6 15 -6 8 0 15 3 15 7 0 14 102 -3 125 -21 15 -11 175
-19 175 -8 0 4 7 6 15 3 8 -4 15 -1 15 5 0 7 6 11 14 9 8 -2 15 1 15 6 0 5 13
15 30 24 17 8 31 19 31 24 0 5 -6 6 -12 1 -7 -4 -42 -8 -78 -9 -66 -1 -119 11
-132 30 -4 6 -10 7 -14 4 -3 -4 -13 0 -21 8 -9 8 -22 13 -31 9 -13 -5 -13 -3
-1 12 8 9 9 14 2 10 -6 -4 -20 3 -31 18 -11 13 -22 21 -26 18 -9 -9 -7 10 3
26 8 13 0 28 -38 67 -7 8 -14 26 -15 39 0 14 -5 25 -9 25 -5 0 -5 5 -1 12 4 6
8 21 9 32 0 12 7 32 14 46 17 32 95 110 110 110 6 0 11 4 11 9 0 9 121 71 145
75 6 1 15 5 22 9 12 8 11 -5 -2 -37 -11 -25 -48 -62 -58 -58 -5 1 -5 -3 -1 -9
4 -6 -11 -28 -36 -51 -46 -44 -51 -62 -6 -23 16 14 34 25 39 25 6 0 8 3 4 6
-8 9 16 33 27 26 5 -3 6 0 3 5 -4 6 -1 16 7 22 7 6 21 30 31 53 22 51 44 80
56 72 5 -3 9 0 9 6 0 6 4 9 9 5 5 -3 12 -1 15 4 4 5 23 15 44 22 20 6 49 20
63 30 14 10 30 15 34 11 5 -4 5 -2 1 5 -3 7 2 14 13 18 12 4 25 24 35 53 15
48 18 143 4 152 -4 3 -8 20 -10 38 -1 18 -6 32 -10 32 -5 0 -4 9 2 20 6 11 8
25 5 30 -3 6 -1 10 5 10 7 0 10 6 7 14 -3 7 -1 18 5 24 15 15 16 135 0 194 -7
29 -15 61 -17 71 -2 9 -7 22 -11 29 -4 6 -3 8 3 5 5 -3 9 2 8 11 -2 26 -24 62
-39 62 -7 0 -19 11 -26 25 -7 14 -16 25 -20 25 -12 0 -75 64 -72 73 1 5 -2 6
-7 3 -13 -8 -26 13 -15 24 5 5 20 11 34 13 65 11 91 21 122 47 35 29 94 107
87 115 -3 2 -20 -11 -39 -29 -51 -48 -148 -63 -220 -36 -3 2 -9 2 -13 1 -5 -1
-6 3 -2 9 3 5 2 10 -3 10 -4 0 -17 8 -28 18 -10 9 -36 26 -56 37 -21 11 -38
25 -38 32 0 7 -4 12 -9 10 -10 -2 -70 58 -116 117 -16 22 -35 44 -41 50 -6 6
-19 30 -29 54 -10 23 -23 42 -28 42 -4 0 -6 4 -2 9 3 5 0 13 -6 16 -5 4 -8 13
-5 21 3 8 0 14 -6 14 -6 0 -8 3 -5 7 4 3 2 12 -5 20 -6 7 -8 16 -5 20 4 3 -1
12 -11 20 -9 8 -11 11 -3 8 10 -6 9 -1 -2 16 -9 13 -19 40 -22 59 -3 19 -10
36 -15 38 -5 2 -6 10 -3 18 3 8 0 14 -6 14 -6 0 -8 7 -4 17 4 10 2 14 -4 10
-7 -4 -10 0 -8 10 1 10 -2 24 -8 31 -5 6 -6 12 -2 12 5 0 0 9 -10 20 -10 11
-13 20 -7 20 7 0 6 10 -4 28 -7 15 -14 37 -14 50 0 12 -4 22 -8 22 -7 0 -12
24 -15 68 0 6 -5 12 -10 12 -5 0 -4 7 3 15 10 12 9 15 -6 15 -16 0 -17 2 -4
10 11 7 11 10 2 10 -7 0 -10 5 -7 10 3 6 1 10 -4 10 -6 0 -11 11 -11 25 0 14
-4 25 -8 25 -4 0 -8 10 -9 22 -1 11 -8 25 -15 29 -10 7 -10 9 1 9 13 0 13 2 0
13 -8 6 -22 21 -29 31 -13 17 -13 18 -1 11 9 -5 7 2 -5 17 -10 14 -22 24 -26
21 -4 -2 -5 3 -2 11 4 11 0 16 -10 16 -9 0 -16 5 -16 12 0 7 -9 21 -20 33 -11
11 -43 49 -72 85 -29 36 -65 77 -81 93 -55 51 -124 108 -148 121 -13 7 -41 23
-62 34 -39 23 -137 61 -172 68 -11 2 -29 5 -40 8 -11 2 -23 5 -27 5 -5 1 -59
102 -63 121 -12 45 -21 63 -38 75 -12 8 -18 15 -13 15 24 0 -142 177 -198 211
-23 14 -34 15 -52 7 -13 -6 -25 -15 -25 -20 -3 -18 -5 -23 -10 -33 -4 -5 -9
-23 -13 -38 -4 -17 -11 -25 -18 -21 -6 4 -8 3 -4 -4 3 -6 1 -23 -5 -39 -13
-30 -17 -49 -22 -102 -2 -18 -12 -38 -21 -43 -14 -8 -15 -12 -4 -26 11 -13 11
-14 -1 -7 -11 6 -13 3 -9 -13 3 -12 2 -22 -4 -24 -5 -2 -10 -13 -10 -24 -2
-18 -28 -53 -35 -46 -2 1 -4 2 -5 1 -5 -1 -43 -9 -63 -13 -42 -9 -65 -19 -65
-29 0 -6 -3 -7 -6 -4 -9 9 -46 -12 -39 -23 3 -5 0 -12 -6 -16 -8 -4 -9 -3 -5
4 4 7 2 12 -3 12 -6 0 -11 -6 -11 -13 0 -7 -13 -20 -29 -30 -45 -26 -110 -81
-173 -144 -36 -36 -66 -58 -80 -58 -13 -1 -45 -4 -73 -8 -27 -4 -63 -10 -80
-12 -16 -2 -50 -9 -75 -16 -25 -6 -54 -13 -65 -15 -43 -11 -50 -13 -52 -14 -2
-2 -7 -4 -13 -5 -5 -1 -13 -4 -17 -5 -5 -1 -11 -2 -15 -2 -3 1 -9 -5 -12 -13
-3 -8 -2 -14 3 -12 4 1 51 -42 104 -95 52 -54 100 -98 106 -98 5 0 17 -9 25
-21 13 -19 12 -25 -4 -53 -33 -60 -54 -101 -56 -111 -3 -18 -35 -108 -42 -119
-4 -6 -7 -13 -7 -16 -2 -14 -34 -63 -35 -52 0 7 -4 11 -8 8 -5 -3 -14 5 -20
17 -11 20 -34 76 -37 87 0 3 -11 32 -24 65 -12 33 -25 69 -27 80 -8 46 -26
101 -37 115 -11 14 -34 27 -89 49 -13 5 -37 15 -55 22 -17 7 -29 17 -27 21 3
4 0 8 -6 8 -6 0 -8 5 -5 10 3 6 -2 10 -12 10 -15 0 -16 2 -3 10 11 7 11 10 2
10 -7 0 -10 5 -7 10 3 6 -1 10 -10 10 -9 0 -13 5 -10 10 3 6 -1 13 -9 16 -9 3
-13 11 -9 17 4 7 0 8 -12 3 -16 -6 -16 -4 -4 11 12 15 12 16 -2 11 -15 -6 -46
28 -41 44 1 4 -5 5 -13 2 -8 -4 -15 -1 -15 6 0 6 -4 8 -10 5 -16 -10 -11 1 7
16 15 12 16 12 8 -1 -6 -12 -6 -13 6 -2 12 11 12 14 -1 22 -9 6 -10 10 -3 10
10 0 26 30 28 53 0 4 7 12 15 17 12 8 13 10 1 10 -10 0 -7 8 10 27 13 14 17
22 10 18 -8 -5 -4 7 9 25 13 18 19 30 12 26 -7 -4 -12 -2 -12 3 0 6 4 11 8 11
5 0 10 21 11 48 2 48 8 110 13 147 2 11 15 33 31 48 15 16 27 33 27 38 0 5 5
9 11 9 6 0 26 16 45 35 18 19 38 35 43 35 10 0 18 46 13 72 -6 29 -75 41 -123
23 -26 -10 -84 -50 -101 -70 -40 -48 -58 -71 -58 -78 0 -5 -4 -6 -9 -3 -5 3
-11 -4 -15 -17 -5 -18 -8 -19 -16 -7 -5 8 -14 16 -20 16 -5 1 -14 2 -19 3 -5
0 -12 8 -15 17 -4 10 -2 13 7 7 6 -4 4 6 -7 21 -10 16 -13 26 -7 22 5 -4 4 6
-4 21 -8 15 -15 33 -15 38 0 6 -13 37 -30 70 -16 33 -30 66 -30 73 0 6 -5 12
-11 12 -5 0 -7 5 -4 10 3 6 2 10 -3 10 -5 0 -9 6 -10 13 -3 25 -10 62 -12 65
-2 1 -4 7 -5 12 -1 6 -3 11 -5 13 -1 1 -4 15 -6 32 -3 16 -9 32 -12 35 -4 3
-7 15 -6 27 2 30 -47 52 -64 30z m2622 -1421 c-3 -6 1 -4 8 6 12 14 15 13 31
-14 15 -27 16 -30 1 -24 -8 3 -18 6 -20 6 -3 0 -2 5 1 10 10 17 -2 11 -16 -7
-7 -10 -9 -15 -4 -10 4 4 19 0 32 -8 13 -9 23 -11 23 -6 0 6 6 8 14 5 8 -3 17
0 21 6 4 7 1 10 -10 8 -9 -2 -24 7 -32 20 -10 14 -11 22 -4 22 6 0 11 -4 11
-10 0 -5 6 -10 13 -10 15 -1 66 -45 69 -61 2 -7 12 -22 23 -33 18 -19 18 -21
2 -24 -9 -2 -15 -7 -12 -12 3 -5 13 -7 23 -4 13 5 14 4 3 -4 -9 -7 -10 -12 -2
-16 6 -4 9 -12 6 -17 -4 -5 -2 -9 3 -9 6 0 12 -7 15 -14 4 -10 1 -13 -7 -10
-8 3 -16 -4 -19 -16 -3 -12 -10 -19 -16 -15 -6 3 -11 2 -11 -4 0 -5 5 -12 10
-14 6 -3 5 -4 -2 -3 -7 2 -13 9 -13 17 0 8 6 13 13 12 6 -2 13 3 13 10 1 6 3
22 4 35 1 14 -5 28 -16 35 -20 12 -26 37 -9 37 6 0 10 5 10 11 0 5 -4 7 -10 4
-5 -3 -10 -1 -10 5 0 6 -4 9 -10 5 -5 -3 -6 -13 -3 -23 5 -15 4 -15 -9 1 -13
18 -15 18 -29 1 -13 -16 -12 -17 6 -10 11 4 16 4 12 0 -4 -4 8 -18 25 -31 18
-12 25 -23 17 -23 -12 0 -12 -2 1 -10 8 -5 12 -11 10 -14 -3 -2 -14 2 -24 10
-13 9 -15 14 -6 14 8 0 4 8 -10 20 -31 27 -48 26 -24 -2 12 -13 13 -18 4 -13
-22 13 -54 56 -62 82 -9 34 0 28 15 -9 7 -18 16 -28 20 -22 7 12 -28 74 -43
74 -5 0 -10 -7 -10 -15 0 -8 -5 -15 -11 -15 -5 0 -8 4 -4 9 3 6 -4 26 -15 45
-11 20 -15 36 -9 36 5 0 7 6 3 13 -5 8 -3 8 9 -2 9 -7 14 -18 11 -25z m66
-174 c0 -3 -8 2 -18 11 -10 10 -22 14 -26 10 -4 -4 -4 0 0 10 6 16 8 16 25 -4
11 -12 19 -24 19 -27z m-25 -1 c3 -5 2 -12 -3 -15 -5 -3 -9 1 -9 9 0 17 3 19
12 6z m59 -22 c11 1 36 -11 36 -18 0 -3 -9 -17 -20 -31 -15 -18 -18 -20 -13
-6 4 13 3 17 -5 12 -8 -5 -10 -1 -5 10 4 11 8 13 11 6 2 -7 8 -9 13 -6 18 11
-11 33 -37 28 -13 -2 -24 0 -24 6 0 6 5 8 10 5 6 -3 10 0 10 7 0 10 2 10 9 0
4 -8 11 -13 15 -13z m-49 -19 c3 -5 1 -10 -4 -10 -6 0 -11 5 -11 10 0 6 2 10
4 10 3 0 8 -4 11 -10z m153 -35 c-3 -3 -9 2 -12 12 -6 14 -5 15 5 6 7 -7 10
-15 7 -18z m-124 -4 c3 -4 -4 -7 -14 -6 -27 2 -33 10 -10 12 11 1 22 -2 24 -6z
m128 -30 c-4 -10 -7 -11 -10 -3 -2 7 -8 10 -13 6 -5 -3 -9 -1 -9 5 0 5 9 9 19
8 12 -1 17 -6 13 -16z m-115 -21 c-2 -23 -10 -17 -12 10 -1 10 2 17 6 14 4 -2
7 -13 6 -24z m73 8 c0 -4 -11 -7 -25 -6 -33 3 -33 16 0 14 14 0 25 -4 25 -8z
m33 -21 c3 -8 1 -20 -5 -28 -8 -11 -9 -10 -4 4 3 9 1 17 -4 17 -6 0 -10 5 -10
10 0 15 17 12 23 -3z m-62 -14 c13 -16 12 -17 -3 -4 -17 13 -22 21 -14 21 2 0
10 -8 17 -17z m39 -17 c0 -3 -4 -8 -10 -11 -5 -3 -10 -1 -10 4 0 6 5 11 10 11
6 0 10 -2 10 -4z m27 -42 c-3 -3 -12 -4 -19 -1 -8 3 -5 6 6 6 11 1 17 -2 13
-5z m800 -911 c-4 -3 1 -11 10 -18 13 -9 13 -14 3 -20 -8 -5 -11 -4 -7 2 4 6
0 14 -9 17 -14 5 -11 26 3 26 4 0 3 -3 0 -7z m-2987 -1144 c0 -6 -4 -7 -10 -4
-5 3 -10 11 -10 16 0 6 5 7 10 4 6 -3 10 -11 10 -16z m93 -154 c-3 -9 -8 -14
-10 -11 -3 3 -2 9 2 15 9 16 15 13 8 -4z m2459 -90 c13 -3 28 -11 33 -18 6 -7
18 -11 28 -9 9 2 20 -4 23 -12 3 -9 11 -13 18 -9 7 4 8 2 1 -5 -14 -15 -95 6
-95 24 0 8 -6 14 -14 14 -7 0 -20 8 -27 17 -10 11 -10 14 -2 9 7 -4 23 -9 35
-11z"/>
<path d="M3600 3419 c12 -8 8 -10 -16 -7 -30 4 -31 3 -21 -19 5 -12 14 -20 20
-16 5 3 3 9 -4 14 -10 6 -10 9 -2 9 6 0 15 -5 18 -10 5 -8 11 -7 21 1 11 9 11
15 3 25 -6 8 -17 14 -23 14 -6 0 -4 -5 4 -11z"/>
<path d="M3762 4734 c-12 -8 -22 -19 -22 -24 0 -5 -14 -39 -32 -77 -33 -70
-34 -73 -40 -110 -5 -26 -40 -97 -51 -101 -4 -2 -5 -8 -1 -13 3 -5 -6 -42 -19
-82 -26 -76 -42 -137 -39 -149 1 -5 -2 -8 -6 -8 -5 0 -9 -6 -9 -13 0 -8 6 -14
14 -14 7 0 13 4 13 9 0 4 3 7 8 6 13 -2 45 14 109 56 90 59 156 99 170 102 6
1 24 11 40 22 15 10 68 43 116 73 49 30 93 62 99 73 7 13 7 16 -1 12 -6 -4
-11 -3 -11 1 0 5 -23 26 -51 48 -28 22 -63 51 -78 65 -14 14 -39 34 -55 45
-15 11 -33 25 -40 30 -19 18 -83 65 -87 65 -3 0 -15 -7 -27 -16z"/>
<path d="M3365 4482 c-2 -2 -11 -5 -22 -6 -10 -2 -23 -14 -30 -27 -10 -20 -9
-27 9 -46 12 -13 17 -23 12 -23 -5 0 -3 -4 4 -9 11 -7 17 -22 21 -52 1 -5 13
-21 50 -65 5 -7 7 -15 4 -18 -4 -3 1 -6 11 -6 29 0 53 35 62 90 3 19 10 48 22
94 8 26 7 36 -1 36 -8 0 -7 3 2 9 22 14 -5 23 -76 25 -35 0 -66 0 -68 -2z"/>
<path d="M3985 4203 c-11 -2 -27 -7 -35 -10 -21 -8 -42 -14 -63 -17 -10 -1
-22 -8 -26 -15 -4 -6 -21 -14 -36 -17 -16 -3 -35 -10 -42 -16 -7 -6 -13 -7
-13 -2 0 5 -4 4 -8 -1 -4 -6 -19 -16 -34 -24 -40 -21 -42 -39 -6 -61 17 -10
35 -17 40 -14 4 3 8 1 8 -4 0 -9 35 -23 70 -28 8 -1 29 -7 45 -14 17 -6 41
-13 55 -15 14 -2 43 -8 65 -13 23 -5 51 -5 64 0 20 7 22 13 18 46 -3 20 -10
51 -15 69 -6 17 -8 34 -4 37 3 3 1 6 -4 6 -6 0 -11 17 -12 37 -2 20 -8 43 -14
50 -11 13 -18 14 -53 6z"/>
<path d="M755 2509 c-4 -11 -10 -19 -15 -19 -4 0 -10 -10 -13 -22 -4 -15 -10
-19 -19 -12 -7 6 -23 9 -35 8 -13 -1 -30 -2 -39 -3 -8 0 -12 -5 -9 -11 3 -5 0
-10 -7 -10 -7 0 -4 -6 7 -12 11 -7 26 -18 33 -25 8 -7 17 -11 22 -8 5 3 11 1
15 -5 4 -6 11 -8 16 -4 5 3 16 1 23 -5 22 -18 76 58 76 108 0 23 -5 30 -25 33
-18 4 -26 0 -30 -13z"/>
<path d="M739 2305 c-1 -3 -2 -9 -3 -14 0 -5 -4 -12 -8 -16 -13 -13 4 -35 27
-35 12 0 31 8 43 18 11 9 29 22 39 29 17 10 17 11 -2 10 -11 -1 -30 -12 -43
-24 -13 -13 -31 -23 -40 -23 -15 0 -15 2 -2 10 10 6 11 10 3 10 -15 0 -13 21
2 32 6 5 5 8 -2 8 -7 0 -14 -2 -14 -5z"/>
<path d="M4576 2077 c13 -16 22 -32 19 -37 -3 -4 2 -11 11 -14 8 -3 12 -10 9
-16 -3 -5 -1 -10 4 -10 16 0 14 6 -16 53 -15 23 -27 45 -26 48 1 3 -4 6 -12 6
-10 0 -6 -10 11 -30z"/>
<path d="M4625 1980 c-3 -5 -1 -10 4 -10 6 0 11 5 11 10 0 6 -2 10 -4 10 -3 0
-8 -4 -11 -10z"/>
<path d="M4630 1945 c0 -8 4 -15 10 -15 5 0 7 7 4 15 -4 8 -8 15 -10 15 -2 0
-4 -7 -4 -15z"/>
<path d="M4627 1883 c3 -7 6 -13 8 -13 2 0 5 6 8 13 3 8 -1 14 -8 14 -7 0 -11
-6 -8 -14z"/>
<path d="M4621 1851 c-8 -5 -9 -11 -3 -15 5 -3 12 1 16 9 6 17 6 18 -13 6z"/>
<path d="M4079 1103 c-13 -16 -12 -17 4 -4 16 13 21 21 13 21 -2 0 -10 -8 -17
-17z"/>
<path d="M1550 939 c0 -5 5 -7 10 -4 6 3 10 8 10 11 0 2 -4 4 -10 4 -5 0 -10
-5 -10 -11z"/>
</g>
</svg>
